<svg xmlns="http://www.w3.org/2000/svg" version="1.1" xmlns:xlink="http://www.w3.org/1999/xlink" viewBox="0 0 200 200"><rect width="200" height="200" fill="url('#gradient')"></rect><defs><linearGradient id="gradient" gradientTransform="rotate(45 0.5 0.5)"><stop offset="0%" stop-color="#2666ae"></stop><stop offset="100%" stop-color="#91bfde"></stop></linearGradient></defs><g><g fill="#ffffff" transform="matrix(5.920976549951815,0,0,5.920976549951815,3.906965736174101,141.5077631449799)" stroke="#ec7313" stroke-width="0"><path d="M8.80-14.22L12.23-14.22L12.23-4.91Q12.23-3.33 11.55-2.17Q10.88-1.02 9.62-0.41Q8.36 0.20 6.64 0.20L6.64 0.20Q4.04 0.20 2.55-1.15Q1.05-2.50 1.03-4.84L1.03-4.84L1.03-14.22L4.47-14.22L4.47-4.78Q4.53-2.44 6.64-2.44L6.64-2.44Q7.71-2.44 8.25-3.03Q8.80-3.61 8.80-4.93L8.80-4.93L8.80-14.22ZM23.06 0L22.23-2.66L17.53-2.66L16.71 0L13.05 0L18.26-14.22L21.48-14.22L26.74 0L23.06 0ZM19.87-10.23L18.35-5.30L21.41-5.30L19.87-10.23ZM31.43-14.22L31.43 0L28.01 0L28.01-14.22L31.43-14.22Z"></path></g></g></svg>